<?xml version="1.0" standalone="no"?><!DOCTYPE svg PUBLIC "-//W3C//DTD SVG 1.1//EN" "http://www.w3.org/Graphics/SVG/1.1/DTD/svg11.dtd"><svg t="1575032353207" class="icon" viewBox="0 0 1024 1024" version="1.1" xmlns="http://www.w3.org/2000/svg" p-id="956" width="16" height="16" xmlns:xlink="http://www.w3.org/1999/xlink"><defs><style type="text/css"></style></defs><path d="M706.188 639.722l11.214 125.355c4.92 55.01-35.683 103.592-90.692 108.513a100 100 0 0 1-8.91 0.397H407.345c-55.229 0-100-44.771-100-100a100 100 0 0 1 0.398-8.91l11.213-125.348c58.055-4.14 125.86-13.525 193.665-13.525 67.767 0 135.534 9.374 193.567 13.518z" fill="#F9E8CD" p-id="957"></path><path d="M870.241 553.725C870.241 341.117 749.624 196 512.621 196 275.617 196 155 341.117 155 553.725c0 137.743 178.81 72.479 357.62 72.479s357.621 65.264 357.621-72.479z" fill="#A77243" p-id="958"></path><path d="M430.006 391l13.006 93.655-13.006 93.654L417 484.655 430.006 391z m68.747 14.69l13.006 93.655L498.753 593l-13.006-93.655 13.006-93.654z m68.747 0l13.006 93.655L567.5 593l-13.006-93.655 13.006-93.654z m68.747 0l13.006 93.655L636.247 593l-13.006-93.655 13.006-93.654zM704.994 391L718 484.655l-13.006 93.654-13.006-93.654L704.994 391z" fill="#6E3D12" p-id="959"></path><path d="M832 881.5c0 43.354-143.269 78.5-320 78.5s-320-35.146-320-78.5c0-25.113 48.07-47.471 122.87-61.84-5.125-11.403-7.973-24.028-7.973-37.31 0-2.704 0.12-5.407 0.362-8.101l12.035-134.544C224.076 646.526 155 639.337 155 553.725 155 341.117 275.617 196 512.62 196c237.004 0 357.621 145.117 357.621 357.725 0 85.457-68.825 92.775-163.776 86.017l12.032 134.507c1.452 16.229-1.453 31.846-7.759 45.721C784.618 834.35 832 856.568 832 881.5zM512.62 626.204c-26.812 0-53.624 1.467-79.834 3.498l-12.93 144.547a90.93 90.93 0 0 0-0.362 8.102c0 49.644 40.913 76.967 90.739 78.185h96.072l18.235-134.958 20.538 132.613c37.1-9.165 62.99-43.883 59.515-82.727l-12.238-136.807c-54.833-4.492-117.284-12.453-179.734-12.453z m-161.668-2.982c8.885-0.814 19.457-1.805 32.415-3.028 58.559-5.527 92.006-7.788 129.254-7.788 37.247 0 70.694 2.261 129.253 7.788 54.565 5.15 66.832 6.193 88.877 7.145 29.117 1.257 51.573 0.261 69.542-3.428 38.573-7.92 55.99-27.975 55.99-70.186 0-104.02-29.537-189.619-86.146-249.14-52.979-55.705-128.977-88.023-225.31-93.836-184.61 45.91-233.038 168.81-202.786 216.589 32.57 51.438 100.804 59.329 148.89 59.329 77.004 0 154.237 4.362 231.242-8.278 13.611-2.235 28.382 8.512 28.382 22.923 0 14.412-10.556 26.704-24.942 29.044-78.383 12.751-153.509 14.26-231.891 14.26-48.295 0-92.125-0.46-123.764 28.872-20.58 19.078-21.415 37.503-19.006 49.734z" fill="#162B3F" p-id="960"></path></svg>